<?xml version="1.0" encoding="utf-8"?>
<!-- Generator: Adobe Illustrator 21.1.0, SVG Export Plug-In . SVG Version: 6.00 Build 0)  -->
<svg version="1.1" id="Capa_1" xmlns="http://www.w3.org/2000/svg" xmlns:xlink="http://www.w3.org/1999/xlink" x="0px" y="0px"
	 viewBox="0 0 16 16" style="enable-background:new 0 0 16 16;" xml:space="preserve">
<style type="text/css">
	.st0{fill:#E490A8;}
</style>
<path class="st0" d="M12.8,7.5c0-0.1,0-0.1,0-0.2c-0.3-1.2-0.7-2.4-0.5-4.3c-3-0.7-5.6-0.7-8.5,0c0.2,1.9-0.1,3.1-0.5,4.3
	c0,0.1,0,0.1-0.1,0.2c1.5,0.7,3.1,1,4.8,1C9.7,8.5,11.3,8.1,12.8,7.5L12.8,7.5z M7.6,7c0-0.2,0.2-0.4,0.4-0.4c0.2,0,0.4,0.2,0.4,0.4
	S8.2,7.4,8,7.4C7.8,7.4,7.6,7.2,7.6,7L7.6,7z"/>
<path class="st0" d="M13,8.3c-1.5,0.7-3.3,1-5,1c-1.8,0-3.5-0.4-5-1C2.9,8.7,2.8,9.1,2.8,9.5L8,12.1l5.2-2.7
	C13.2,9.1,13.1,8.7,13,8.3z"/>
<path class="st0" d="M2.9,11.8c0.2,1,0.4,1.8,1.1,3.3c0.1,0.2,0.2,0.2,0.4,0.2h3.2v-2.4l-4.8-2.5C2.7,10.8,2.8,11.3,2.9,11.8
	L2.9,11.8z"/>
<path class="st0" d="M8.4,15.3h3.2c0.2,0,0.3-0.1,0.4-0.2c0.7-1.6,0.9-2.3,1.1-3.3c0.1-0.5,0.1-0.9,0.1-1.4l-4.8,2.5V15.3z"/>
<path class="st0" d="M3.6,2.1c3-0.7,5.7-0.7,8.8,0c0.1-0.3,0.1-0.6,0.2-0.9c0-0.1,0-0.3-0.1-0.4s-0.2-0.2-0.3-0.2H3.8
	c-0.1,0-0.3,0.1-0.3,0.2C3.4,0.9,3.4,1.1,3.4,1.2C3.5,1.5,3.6,1.8,3.6,2.1L3.6,2.1z"/>
</svg>
