<svg fill="#fff" id="Icons" height="512" viewBox="0 0 74 74" width="512" xmlns="http://www.w3.org/2000/svg"><path d="m8.244 35.885q-.01-.575-.011-1.151a23.475 23.475 0 0 1 1.66-9.121l1.844.775a21.5 21.5 0 0 0 -1.5 8.346q0 .558.011 1.115z"/><path d="m65.759 35.738-2-.029q.007-.487.008-.976c0-10.729-5.981-17.133-16-17.133a12.359 12.359 0 0 0 -6.213 1.7 9.06 9.06 0 0 1 -9.107 0 12.359 12.359 0 0 0 -6.213-1.7c-5.476 0-9.846 1.923-12.639 5.562l-1.586-1.218c3.138-4.091 8.191-6.344 14.224-6.344a14.334 14.334 0 0 1 7.209 1.97 7.08 7.08 0 0 0 7.115 0 14.334 14.334 0 0 1 7.209-1.97c11.1 0 18 7.332 18 19.133q.001.504-.007 1.005z"/><path d="m46.633 72a11.236 11.236 0 0 1 -5.021-1.11 10.641 10.641 0 0 0 -9.226 0 11.236 11.236 0 0 1 -5.02 1.11c-7.026 0-13.978-8.958-17.3-22.292l1.941-.483c3.048 12.232 9.362 20.775 15.359 20.775a9.288 9.288 0 0 0 4.147-.909 12.651 12.651 0 0 1 10.972 0 9.288 9.288 0 0 0 4.148.909c6 0 12.313-8.543 15.356-20.775l1.941.483c-3.319 13.334-10.27 22.292-17.297 22.292z"/><path d="m36.007 19.646c-.073-.615-1.71-15.1 5.776-17.6l.633 1.9c-4.937 1.648-4.866 11.721-4.423 15.464z"/><path d="m68.733 50.467h-63.466a1 1 0 0 1 -1-1v-13.6a1 1 0 0 1 1-1h46.733v2h-45.733v11.6h61.466v-11.6h-11.733v-2h12.733a1 1 0 0 1 1 1v13.6a1 1 0 0 1 -1 1z"/><path d="m12.767 44.933h2v4.534h-2z"/><path d="m21.833 46.067h2v3.4h-2z"/><path d="m30.9 44.933h2v4.534h-2z"/><path d="m39.967 46.067h2v3.4h-2z"/><path d="m49.033 44.933h2v4.534h-2z"/><path d="m58.1 46.067h2v3.4h-2z"/></svg>