<svg fill="#fff" id="Icons" height="512" viewBox="0 0 74 74" width="512" xmlns="http://www.w3.org/2000/svg"><path d="m51 72h-28a1 1 0 0 1 -.732-.319c-13.146-14.157-9.626-24.609-5.9-35.675 3.161-9.387 6.431-19.095.71-32.616l1.842-.779c6.017 14.22 2.471 24.747-.657 34.034-3.654 10.855-6.814 20.238 5.175 33.355h27.124c11.989-13.117 8.83-22.5 5.175-33.356-.879-2.611-1.788-5.31-2.509-8.141l1.938-.493c.7 2.757 1.6 5.42 2.467 8 3.727 11.066 7.246 21.518-5.9 35.675a1 1 0 0 1 -.733.315z"/><path d="m52.373 24.516a37.72 37.72 0 0 1 2.706-21.906l1.842.779a35.813 35.813 0 0 0 -2.577 20.791z"/><path d="m37 44.99c-3.84 0-7.68-1.122-15.218-3.365-1.676-.5-3.541-1.054-5.637-1.665l.561-1.92c2.1.612 3.968 1.168 5.647 1.668 14.647 4.359 14.647 4.359 29.294 0 1.68-.5 3.548-1.056 5.647-1.668l.561 1.92c-2.1.611-3.961 1.166-5.638 1.665-7.536 2.244-11.377 3.365-15.217 3.365z"/><path d="m53.456 10.829-1.808-.537c-14.648-4.359-14.648-4.359-29.296 0l-1.808.537-.568-1.917 1.806-.537c15.076-4.487 15.361-4.487 30.438 0l1.806.537z"/><path d="m37 57a1 1 0 0 1 -.707-.293c-8.92-8.92-21.669-9.985-21.8-10l.152-1.994c.538.041 12.98 1.083 22.352 9.89 9.371-8.807 21.813-9.849 22.352-9.89l.152 1.994c-.128.01-12.9 1.094-21.8 10a1 1 0 0 1 -.701.293z"/><path d="m36 56h2v15h-2z"/><path d="m36 30h2v4h-2z"/></svg>