<svg fill="#fff"  version="1.1" id="Capa_1" xmlns="http://www.w3.org/2000/svg" xmlns:xlink="http://www.w3.org/1999/xlink" x="0px" y="0px"
	 viewBox="0 0 512 512" style="enable-background:new 0 0 512 512;" xml:space="preserve">
<g>
	<circle cx="505.4" cy="215.4" r="6.6"/>
	<path d="M87.7,512C39.3,512,0,472.7,0,424.3V87.7C0,39.3,39.3,0,87.7,0h417.7c1.7,0,3.4,0.7,4.7,1.9c1.2,1.2,1.9,2.9,1.9,4.7v163.2
		c0,3.6-3,6.6-6.6,6.6s-6.6-3-6.6-6.6V13.2H134.9l7.8,6.3c20.7,16.8,32.6,41.6,32.6,68.2v330h323.4V261.1c0-3.6,3-6.6,6.6-6.6
		c3.6,0,6.6,3,6.6,6.6v163.2c0,1.7-0.7,3.4-1.9,4.7c-1.2,1.2-2.9,1.9-4.7,1.9H175.2l-0.4,3.2C169.9,478.5,132.5,512,87.7,512z
		 M13.2,424.3c0,41.1,33.4,74.5,74.5,74.5s74.5-33.4,74.5-74.5V135l-6.3,7.8c-16.8,20.7-41.6,32.6-68.2,32.6s-51.4-11.9-68.2-32.6
		l-6.3-7.8V424.3z M87.7,13.2c-41.1,0-74.5,33.4-74.5,74.5c0,41.1,33.4,74.5,74.5,74.5s74.5-33.4,74.5-74.5
		C162.2,46.6,128.8,13.2,87.7,13.2z"/>
	<path d="M87.7,134.8c-26,0-47.1-21.1-47.1-47.1s21.1-47.1,47.1-47.1s47.1,21.1,47.1,47.1S113.7,134.8,87.7,134.8z M87.7,53.7
		c-18.7,0-34,15.2-34,34s15.2,34,34,34s34-15.2,34-34S106.4,53.7,87.7,53.7z"/>
	<circle cx="87.7" cy="87.7" r="6.6"/>
</g>
</svg>
